<svg xmlns="http://www.w3.org/2000/svg" width="182" height="64" fill="none" viewBox="0 0 182 64">
  <rect width="182" height="64" fill="#fff" rx="6"/>
  <path fill="#7264D6" d="M90.847 33.317c-2.42 0-4.393 1.841-4.393 4.376 0 2.52 1.973 4.377 4.393 4.377 2.421 0 4.394-1.857 4.394-4.377-.002-2.535-1.974-4.376-4.394-4.376Zm0 7.03c-1.326 0-2.47-1.094-2.47-2.653 0-1.575 1.145-2.652 2.47-2.652 1.326 0 2.47 1.077 2.47 2.652 0 1.558-1.144 2.653-2.47 2.653Zm-9.584-7.03c-2.42 0-4.392 1.841-4.392 4.376 0 2.52 1.972 4.377 4.392 4.377 2.421 0 4.394-1.857 4.394-4.377 0-2.535-1.973-4.376-4.394-4.376Zm0 7.03c-1.326 0-2.47-1.094-2.47-2.653 0-1.575 1.145-2.652 2.47-2.652 1.326 0 2.47 1.077 2.47 2.652 0 1.558-1.144 2.653-2.47 2.653Zm-11.399-5.686v1.856h4.443c-.132 1.045-.48 1.807-1.011 2.337-.646.646-1.658 1.36-3.432 1.36-2.735 0-4.873-2.206-4.873-4.94 0-2.736 2.138-4.94 4.873-4.94 1.476 0 2.553.58 3.349 1.326l1.31-1.31c-1.112-1.061-2.586-1.873-4.659-1.873-3.746 0-6.896 3.05-6.896 6.796 0 3.747 3.15 6.796 6.896 6.796 2.022 0 3.548-.663 4.74-1.906 1.227-1.227 1.61-2.951 1.61-4.343 0-.43-.034-.829-.1-1.16h-6.25v.001Zm46.62 1.442c-.364-.978-1.475-2.786-3.746-2.786-2.255 0-4.128 1.774-4.128 4.376 0 2.453 1.857 4.377 4.343 4.377 2.005 0 3.166-1.227 3.647-1.94l-1.491-.995c-.497.73-1.178 1.21-2.156 1.21-.978 0-1.674-.448-2.122-1.326l5.852-2.42-.199-.496Zm-5.968 1.459c-.049-1.692 1.31-2.553 2.289-2.553.762 0 1.408.382 1.624.928l-3.913 1.625Zm-4.757 4.243h1.923V28.942h-1.923v12.863Zm-3.15-7.51h-.066c-.431-.514-1.261-.978-2.304-.978-2.189 0-4.194 1.923-4.194 4.394 0 2.453 2.005 4.36 4.194 4.36 1.045 0 1.873-.465 2.304-.994h.066v.63c0 1.673-.895 2.569-2.337 2.569-1.177 0-1.907-.845-2.205-1.558l-1.674.696c.48 1.16 1.756 2.586 3.879 2.586 2.254 0 4.161-1.326 4.161-4.56v-7.856h-1.823v.712h-.001Zm-2.204 6.052c-1.326 0-2.437-1.111-2.437-2.636 0-1.542 1.11-2.67 2.437-2.67 1.309 0 2.337 1.128 2.337 2.67 0 1.525-1.028 2.636-2.337 2.636Zm25.087-11.405h-4.601v12.863h1.919v-4.873h2.681c2.128 0 4.22-1.54 4.22-3.994 0-2.455-2.091-3.996-4.219-3.996Zm.049 6.2h-2.731v-4.41h2.731c1.435 0 2.25 1.189 2.25 2.206 0 .996-.815 2.204-2.25 2.204Zm11.866-1.847c-1.39 0-2.83.612-3.425 1.969l1.704.711c.364-.711 1.043-.944 1.754-.944.993 0 2.002.596 2.019 1.655v.133c-.348-.199-1.093-.496-2.003-.496-1.836 0-3.707 1.01-3.707 2.895 0 1.722 1.506 2.83 3.194 2.83 1.29 0 2.002-.58 2.449-1.259h.066v.993h1.854v-4.931c.001-2.282-1.705-3.556-3.905-3.556Zm-.233 7.049c-.627 0-1.505-.315-1.505-1.093 0-.993 1.093-1.373 2.036-1.373.843 0 1.241.182 1.754.43a2.328 2.328 0 0 1-2.285 2.036Zm10.89-6.769-2.201 5.577h-.066l-2.284-5.577h-2.068l3.425 7.795-1.953 4.336h2.002l5.28-12.13h-2.135Zm-17.293 8.23h1.919V28.942h-1.919v12.863ZM69.529 21.476c0 .862-.255 1.548-.766 2.06-.58.61-1.338.915-2.268.915-.891 0-1.65-.31-2.272-.927-.624-.618-.936-1.384-.936-2.297 0-.915.312-1.68.936-2.298.622-.618 1.38-.927 2.272-.927.442 0 .865.086 1.266.258.403.173.725.403.966.69l-.543.543c-.408-.489-.971-.733-1.69-.733a2.35 2.35 0 0 0-1.687.686c-.474.456-.71 1.05-.71 1.78s.236 1.323.71 1.78a2.348 2.348 0 0 0 1.687.685c.689 0 1.264-.23 1.724-.69.299-.299.471-.716.518-1.25h-2.242v-.741h2.99c.032.161.045.317.045.466Zm4.744-2.579h-2.811v1.957h2.535v.742h-2.535v1.957h2.81v.76h-3.604v-6.174h3.605v.758Zm3.345 5.416h-.794v-5.416H75.1v-.758h4.242v.758h-1.724v5.416Zm4.794 0v-6.174h.793v6.174h-.793Zm4.311 0h-.793v-5.416h-1.725v-.758h4.243v.758h-1.725v5.416Zm9.755-.798c-.607.624-1.361.936-2.263.936-.903 0-1.657-.312-2.263-.936-.607-.623-.91-1.387-.91-2.29 0-.902.303-1.665.91-2.289.606-.623 1.36-.936 2.263-.936.897 0 1.65.314 2.26.94.608.627.913 1.388.913 2.286 0 .902-.304 1.666-.91 2.29Zm-3.94-.517a2.264 2.264 0 0 0 1.677.693c.661 0 1.22-.231 1.677-.693.457-.463.686-1.054.686-1.772s-.23-1.31-.686-1.772a2.263 2.263 0 0 0-1.677-.694c-.662 0-1.22.232-1.678.694-.456.463-.685 1.054-.685 1.772s.23 1.309.685 1.772Zm5.963 1.315v-6.174h.965l3.001 4.802h.034l-.034-1.19V18.14h.793v6.174h-.828l-3.14-5.036h-.034l.034 1.19v3.846h-.79Z"/>
  <path fill="#7264D6" fill-rule="evenodd" d="M31.195 19.119c-.125.278-.195.62-.195 1.019v22.756c0 .4.07.742.195 1.02l12.397-12.399L31.195 19.12Zm.695 25.515c.46.203 1.065.144 1.725-.23l14.58-8.285-3.896-3.896-12.41 12.41Zm17.207-9.027 4.583-2.604c1.438-.818 1.438-2.155 0-2.972l-4.585-2.605-4.09 4.09 4.092 4.09Zm-.904-8.694L33.615 18.63c-.66-.374-1.265-.434-1.725-.23l12.409 12.41 3.894-3.896Z" clip-rule="evenodd"/>
</svg>
