<svg xmlns="http://www.w3.org/2000/svg" width="182" height="64" fill="none" viewBox="0 0 182 64">
  <rect width="182" height="64" fill="#fff" rx="6"/>
  <path fill="#7264D6" d="M114.889 30.04v2.56h-1.603v1.677h1.603v5.7c0 1.946.881 2.725 3.096 2.725.389 0 .76-.047 1.084-.102v-1.66a6.303 6.303 0 0 1-.76.047c-.992 0-1.427-.463-1.427-1.52v-5.19h2.187V32.6h-2.187v-2.56h-1.993Zm9.823 12.8c2.947 0 4.754-1.974 4.754-5.246 0-3.253-1.817-5.236-4.754-5.236-2.948 0-4.764 1.983-4.764 5.236 0 3.272 1.807 5.246 4.764 5.246Zm0-1.77c-1.733 0-2.707-1.27-2.707-3.476 0-2.187.974-3.466 2.707-3.466 1.723 0 2.706 1.279 2.706 3.466 0 2.197-.983 3.475-2.706 3.475Zm6.3 1.575h1.993v-5.96c0-1.417 1.066-2.372 2.576-2.372.352 0 .945.065 1.112.12V32.47c-.213-.056-.593-.083-.889-.083-1.316 0-2.438.722-2.725 1.714h-.148v-1.547h-1.919v10.092Zm10.629-8.591c1.473 0 2.437 1.029 2.484 2.613h-5.098c.111-1.575 1.14-2.613 2.614-2.613Zm2.474 5.866c-.37.788-1.195 1.224-2.4 1.224-1.594 0-2.623-1.122-2.688-2.892v-.111h7.127v-.695c0-3.17-1.696-5.088-4.504-5.088-2.845 0-4.652 2.048-4.652 5.273 0 3.225 1.77 5.209 4.661 5.209 2.308 0 3.921-1.113 4.375-2.92h-1.919Zm-42.293-1.002c.154 2.478 2.219 4.063 5.293 4.063 3.285 0 5.341-1.662 5.341-4.313 0-2.084-1.172-3.237-4.015-3.9l-1.528-.374c-1.805-.423-2.535-.99-2.535-1.98 0-1.248 1.133-2.064 2.833-2.064 1.614 0 2.728.797 2.93 2.075h2.094c-.125-2.335-2.18-3.977-4.995-3.977-3.026 0-5.043 1.642-5.043 4.111 0 2.036 1.143 3.247 3.65 3.833l1.787.432c1.835.432 2.641 1.066 2.641 2.123 0 1.23-1.268 2.123-2.997 2.123-1.853 0-3.141-.836-3.323-2.152h-2.133Zm-20.641-6.532c-1.371 0-2.557.685-3.169 1.835h-.148v-1.668h-1.919V46h1.993v-4.884h.157c.529 1.066 1.669 1.696 3.105 1.696 2.549 0 4.17-2.011 4.17-5.218 0-3.206-1.621-5.208-4.189-5.208Zm-.565 8.637c-1.668 0-2.715-1.316-2.715-3.42 0-2.113 1.047-3.429 2.725-3.429 1.686 0 2.696 1.288 2.696 3.42 0 2.14-1.01 3.43-2.706 3.43Zm11.727-8.637c-1.372 0-2.558.685-3.17 1.835h-.148v-1.668h-1.918V46h1.992v-4.884h.158c.528 1.066 1.668 1.696 3.104 1.696 2.549 0 4.17-2.011 4.17-5.218 0-3.206-1.621-5.208-4.188-5.208Zm-.566 8.637c-1.668 0-2.715-1.316-2.715-3.42 0-2.113 1.047-3.429 2.725-3.429 1.686 0 2.697 1.288 2.697 3.42 0 2.14-1.01 3.43-2.706 3.43ZM72.37 42.645h2.286l-5.004-13.861h-2.315l-5.005 13.861h2.21l1.277-3.679h5.283l1.268 3.679Zm-3.986-11.344h.163l2.008 5.86h-4.188l2.017-5.86ZM63.67 18.329v6.687h2.415c1.993 0 3.146-1.228 3.146-3.364 0-2.104-1.163-3.323-3.146-3.323h-2.414Zm1.039.945h1.26c1.386 0 2.206.88 2.206 2.391 0 1.534-.806 2.405-2.206 2.405h-1.26v-4.796Zm8.056 5.839c1.474 0 2.377-.987 2.377-2.623 0-1.626-.908-2.618-2.377-2.618-1.473 0-2.382.992-2.382 2.618 0 1.636.904 2.623 2.382 2.623Zm0-.885c-.866 0-1.353-.635-1.353-1.738 0-1.093.487-1.733 1.353-1.733.862 0 1.353.64 1.353 1.733 0 1.098-.491 1.738-1.353 1.738Zm10.072-4.258h-.996l-.899 3.85h-.079l-1.038-3.85h-.954l-1.038 3.85h-.074l-.904-3.85h-1.01l1.39 5.046h1.024l1.038-3.717h.079l1.042 3.717h1.034l1.385-5.047Zm1.148 5.046h.996v-2.952c0-.788.468-1.279 1.205-1.279.736 0 1.089.403 1.089 1.214v3.017h.996v-3.267c0-1.2-.621-1.877-1.747-1.877-.76 0-1.26.338-1.506.899h-.074v-.802h-.96v5.047Zm5.855 0h.996V18h-.996v7.016Zm4.743.097c1.474 0 2.377-.987 2.377-2.623 0-1.626-.908-2.618-2.377-2.618-1.473 0-2.382.992-2.382 2.618 0 1.636.904 2.623 2.382 2.623Zm0-.885c-.866 0-1.353-.635-1.353-1.738 0-1.093.487-1.733 1.353-1.733.862 0 1.353.64 1.353 1.733 0 1.098-.49 1.738-1.353 1.738Zm5.346.032c-.542 0-.936-.264-.936-.718 0-.445.315-.681 1.01-.727l1.233-.08v.422c0 .626-.556 1.103-1.307 1.103Zm-.255.84c.663 0 1.214-.288 1.515-.793h.079v.709h.959v-3.448c0-1.066-.713-1.696-1.978-1.696-1.145 0-1.96.556-2.063 1.423h.964c.111-.357.496-.561 1.052-.561.681 0 1.034.301 1.034.834v.436l-1.367.078c-1.2.075-1.877.598-1.877 1.506 0 .923.709 1.511 1.682 1.511Zm5.934 0c.695 0 1.284-.33 1.585-.881h.079v.797h.954V18h-.996v2.771h-.074c-.274-.556-.857-.885-1.548-.885-1.274 0-2.094 1.01-2.094 2.604 0 1.599.811 2.61 2.094 2.61Zm.283-4.32c.834 0 1.357.663 1.357 1.715 0 1.056-.519 1.71-1.357 1.71-.844 0-1.349-.644-1.349-1.715 0-1.06.51-1.71 1.349-1.71Zm8.796 4.333c1.473 0 2.377-.987 2.377-2.623 0-1.626-.908-2.618-2.377-2.618-1.474 0-2.382.992-2.382 2.618 0 1.636.904 2.623 2.382 2.623Zm0-.885c-.867 0-1.353-.635-1.353-1.738 0-1.093.486-1.733 1.353-1.733.862 0 1.353.64 1.353 1.733 0 1.098-.491 1.738-1.353 1.738Zm3.696.788h.996v-2.952c0-.788.468-1.279 1.205-1.279.737 0 1.089.403 1.089 1.214v3.017h.996v-3.267c0-1.2-.621-1.877-1.747-1.877-.76 0-1.26.338-1.506.899h-.074v-.802h-.959v5.047Zm8.874-6.302v1.279h-.801v.838h.801v2.85c0 .973.441 1.363 1.548 1.363.195 0 .38-.024.542-.052v-.829c-.139.014-.227.023-.38.023-.495 0-.713-.232-.713-.76v-2.595h1.093v-.838h-1.093v-1.28h-.997Zm3.428 6.302h.996v-2.947c0-.765.454-1.28 1.27-1.28.704 0 1.079.408 1.079 1.215v3.012h.997v-3.258c0-1.2-.663-1.881-1.738-1.881-.76 0-1.293.338-1.539.903h-.078V18h-.987v7.016Zm7.936-4.296c.736 0 1.218.514 1.242 1.307h-2.549c.055-.788.57-1.307 1.307-1.307Zm1.237 2.933c-.185.394-.598.612-1.2.612-.797 0-1.312-.56-1.344-1.446v-.055h3.563v-.348c0-1.585-.848-2.544-2.252-2.544-1.422 0-2.326 1.024-2.326 2.637 0 1.612.885 2.604 2.331 2.604 1.154 0 1.96-.556 2.187-1.46h-.959ZM51.521 31.27a5.57 5.57 0 0 1 2.631-4.637 5.726 5.726 0 0 0-4.456-2.409c-1.875-.196-3.692 1.122-4.648 1.122-.974 0-2.445-1.102-4.029-1.07a5.983 5.983 0 0 0-4.994 3.046c-2.159 3.739-.548 9.233 1.52 12.255 1.035 1.48 2.244 3.133 3.827 3.074 1.549-.064 2.127-.988 3.996-.988 1.852 0 2.395.988 4.01.95 1.661-.026 2.709-1.486 3.707-2.98a12.237 12.237 0 0 0 1.695-3.452 5.387 5.387 0 0 1-3.259-4.912Zm-3.05-9.033a5.44 5.44 0 0 0 1.245-3.897 5.535 5.535 0 0 0-3.582 1.853 5.223 5.223 0 0 0-1.277 3.753 4.63 4.63 0 0 0 3.614-1.709Z"/>
</svg>
