<svg xmlns="http://www.w3.org/2000/svg" width="24" height="24" fill="none" viewBox="0 0 24 24">
  <path fill="#7264D6" d="M23.297 19.031H.703a.703.703 0 0 0-.703.703 2.11 2.11 0 0 0 2.11 2.11h19.78a2.11 2.11 0 0 0 2.11-2.11.703.703 0 0 0-.703-.703ZM17.625 5.672V5.32c0-.266-.15-.51-.389-.629l-4.921-2.46a.704.704 0 0 0-.63 0L6.764 4.69a.703.703 0 0 0-.389.63v.35c0 .39.314.704.703.704h9.844a.703.703 0 0 0 .703-.703ZM8.484 7.781h2.813v5.625H8.484V7.781Zm4.219 0h2.813v5.625h-2.813V7.781Z"/>
  <path fill="#7264D6" d="M5.018 4.969H2.109a.703.703 0 0 0-.703.703v11.953h21.188V5.672a.703.703 0 0 0-.703-.703h-2.909c.02.116.05.23.05.351v.352c0 1.163-.947 2.11-2.11 2.11v5.624h.703a.703.703 0 1 1 0 1.406H6.375a.703.703 0 1 1 0-1.406h.703V7.781a2.112 2.112 0 0 1-2.11-2.11v-.35c0-.122.03-.236.05-.352Z"/>
</svg>
