<svg xmlns="http://www.w3.org/2000/svg" width="63" height="48" fill="none" viewBox="0 0 63 48">
  <rect width="63" height="48" fill="#F2F2FA" rx="4"/>
  <path fill="#137ABE" d="M34.467 23.498 31.68 20.42l-3.095 2.764 2.785 3.14 3.096-2.826Zm-8.11-5.59 2.786 3.077 3.095-2.763-2.786-3.077-3.095 2.763Zm10.276 10.928-2.785-3.077-3.096 2.825 2.786 3.078 3.095-2.826Z"/>
  <path fill="#137ABE" d="m33.414 33.986-5.076-5.715 1.424-1.256-3.59-4.02 1.423-1.256-3.59-4.02 5.633-5.086 1.795 1.947 3.096-2.7 1.795 1.883 1.176-1.067c-.248-.126-.557-.314-.805-.44C34.9 11.502 32.981 11 30.938 11 23.82 11 18 16.84 18 24s5.819 13 13 13a12.73 12.73 0 0 0 6.376-1.696 42.204 42.204 0 0 0 1.733-1.13l-2.6-2.952-3.095 2.764Z"/>
  <path fill="#137ABE" d="m32.052 16.401 2.043 2.324 2.353-2.073-2.105-2.324-2.29 2.073Zm6.5 4.899-2.104-2.324-2.29 2.135 2.104 2.261 2.29-2.073Zm1.981 4.898-2.104-2.324-2.29 2.073 2.104 2.386 2.29-2.135Zm.124-7.662-1.547 1.382 1.423 1.57 1.486-1.382-1.362-1.57Zm.433 5.966 1.362 1.57L44 24.692l-1.424-1.57-1.486 1.381Zm-3.961-9.169 1.423 1.57 1.486-1.381-1.362-1.57-1.547 1.381Zm1.052 15.324 2.105 2.324 2.29-2.073-2.105-2.324-2.29 2.073Z"/>
</svg>
