<svg xmlns="http://www.w3.org/2000/svg" width="63" height="48" fill="none" viewBox="0 0 63 48">
  <rect width="63" height="48" fill="#F2F2FA" rx="4"/>
  <path fill="#F9B50B" d="M52 24c0 6.585-5.354 12-12 12-6.585 0-12-5.415-12-12s5.354-12 11.938-12C46.646 12 52 17.415 52 24Z"/>
  <path fill="#C8191C" d="M35.938 24.061c0-.861-.123-1.723-.246-2.523h-7.384c.061-.43.184-.8.307-1.292H35.2c-.123-.43-.308-.861-.492-1.292h-5.6c.184-.43.43-.8.677-1.293h4.246a8.414 8.414 0 0 0-.923-1.292h-2.339c.37-.43.739-.8 1.231-1.23C29.908 13.168 27.077 12 23.939 12 17.415 12.185 12 17.415 12 24s5.354 12 12 12c3.139 0 5.908-1.23 8.062-3.139.43-.369.8-.8 1.23-1.292h-2.461a8.8 8.8 0 0 1-.862-1.23h4.185c.246-.37.492-.8.677-1.293h-5.6c-.185-.37-.37-.8-.493-1.292h6.585c.37-1.108.615-2.339.615-3.693Z"/>
  <path fill="#fff" d="m28.246 27.077.185-1.108c-.062 0-.185.062-.308.062-.43 0-.492-.246-.43-.37l.369-2.215h.677l.184-1.23h-.615l.123-.739h-1.292s-.739 4.185-.739 4.677c0 .738.431 1.108 1.046 1.108.37 0 .677-.123.8-.185Zm.431-2.031c0 1.785 1.23 2.216 2.215 2.216.923 0 1.354-.185 1.354-.185l.246-1.23s-.677.307-1.354.307c-1.415 0-1.169-1.046-1.169-1.046h2.585s.184-.8.184-1.17c0-.8-.43-1.846-1.846-1.846-1.23-.061-2.215 1.354-2.215 2.954Zm2.215-1.846c.677 0 .554.8.554.861H30.03c.062-.061.185-.861.862-.861Zm8.062 3.877.246-1.415s-.616.307-1.108.307c-.861 0-1.292-.677-1.292-1.477 0-1.538.738-2.338 1.661-2.338.616 0 1.17.37 1.17.37l.184-1.355s-.738-.307-1.477-.307c-1.477 0-2.892 1.292-2.892 3.692 0 1.6.738 2.646 2.277 2.646.554.062 1.23-.123 1.23-.123ZM21.292 22.03a4.97 4.97 0 0 0-1.539.247l-.184 1.108s.554-.247 1.415-.247c.43 0 .8.062.8.431 0 .246-.061.308-.061.308h-.554c-1.108 0-2.277.43-2.277 1.908 0 1.169.738 1.415 1.23 1.415.862 0 1.293-.554 1.354-.554l-.061.492h1.046l.492-3.507c0-1.539-1.23-1.6-1.661-1.6Zm.246 2.831c0 .185-.123 1.231-.862 1.231-.369 0-.492-.307-.492-.492 0-.308.185-.739 1.17-.739h.184Zm2.647 2.339c.308 0 1.908.062 1.908-1.662 0-1.6-1.539-1.292-1.539-1.907 0-.308.247-.431.677-.431.185 0 .862.062.862.062l.184-1.17s-.43-.123-1.23-.123c-.923 0-1.908.37-1.908 1.662 0 1.477 1.6 1.354 1.6 1.907 0 .37-.43.431-.739.431-.553 0-1.169-.184-1.169-.184l-.184 1.169c.123.123.492.246 1.538.246Zm25.353-6.154-.246 1.723s-.492-.615-1.23-.615c-1.17 0-2.155 1.415-2.155 3.077 0 1.046.493 2.092 1.6 2.092.739 0 1.231-.492 1.231-.492l-.061.43h1.292l.923-6.092-1.354-.123Zm-.615 3.323c0 .677-.308 1.6-1.046 1.6-.431 0-.677-.369-.677-1.046 0-1.046.43-1.661 1.046-1.661.43.061.677.369.677 1.107Zm-34.584 2.77.738-4.554.123 4.553h.862l1.662-4.553-.677 4.553H18.4l1.046-6.092h-2.093L16.062 24.8 16 21.046h-1.846l-1.046 6.093h1.231Z"/>
  <path fill="#fff" d="M34.03 27.138c.37-2.092.431-3.815 1.355-3.507.123-.8.307-1.17.43-1.477h-.246c-.554 0-1.046.738-1.046.738l.123-.677h-1.23l-.8 4.923h1.415Zm7.877-5.108c-.861 0-1.538.247-1.538.247l-.185 1.108s.554-.247 1.416-.247c.43 0 .8.062.8.431 0 .246-.062.308-.062.308h-.554c-1.108 0-2.277.43-2.277 1.908 0 1.169.739 1.415 1.231 1.415.861 0 1.292-.554 1.354-.554l-.062.492h1.17l.492-3.507c0-1.539-1.354-1.6-1.785-1.6Zm.308 2.831c0 .185-.123 1.231-.862 1.231-.369 0-.492-.307-.492-.492 0-.308.185-.739 1.17-.739h.184Zm2.462 2.277c.37-2.092.431-3.815 1.354-3.507.123-.8.308-1.17.431-1.477h-.246c-.554 0-1.046.738-1.046.738l.123-.677h-1.231l-.8 4.923h1.415Z"/>
</svg>
