<svg xmlns="http://www.w3.org/2000/svg" width="63" height="48" fill="none" viewBox="0 0 63 48">
  <rect width="63" height="48" fill="#F2F2FA" rx="4"/>
  <path fill="#263577" d="M26.31 23.218c-.104.78-.729.78-1.302.78h-.312l.26-1.51c0-.104.105-.156.209-.156h.156c.416 0 .781 0 .99.209v.677Zm-.26-2.083h-2.24c-.155 0-.26.104-.312.26l-.885 5.728c0 .104.052.208.208.208h1.042c.156 0 .26-.104.312-.26l.26-1.562c0-.156.157-.26.313-.26h.73c1.457 0 2.29-.73 2.55-2.136.105-.624 0-1.093-.26-1.457-.416-.313-.99-.521-1.718-.521Zm5.155 4.165c-.104.625-.573 1.042-1.198 1.042-.312 0-.572-.104-.729-.312-.156-.209-.208-.47-.156-.73.104-.624.573-1.04 1.198-1.04.312 0 .573.103.729.312.104.156.208.416.156.729Zm1.458-2.082h-1.041c-.104 0-.157.052-.209.156l-.052.312-.052-.104c-.208-.312-.729-.469-1.25-.469-1.197 0-2.187.886-2.395 2.136-.104.624.052 1.197.417 1.614.312.364.78.52 1.354.52.937 0 1.458-.624 1.458-.624l-.052.312c0 .104.052.208.208.208h.937c.156 0 .26-.104.313-.26l.572-3.645c0-.052-.052-.156-.208-.156Zm5.675 0h-1.094a.286.286 0 0 0-.26.156l-1.458 2.187-.625-2.083c-.052-.156-.156-.208-.313-.208h-1.041c-.104 0-.208.104-.156.26l1.198 3.437-1.094 1.562c-.104.104 0 .313.156.313h1.094a.287.287 0 0 0 .26-.157l3.541-5.155c.052-.156-.052-.312-.208-.312Z"/>
  <path fill="#2199D6" d="M42.14 23.218c-.105.78-.73.78-1.302.78h-.313l.26-1.51c0-.104.105-.156.209-.156h.156c.417 0 .781 0 .99.209.052.208.052.416 0 .677Zm-.26-2.083h-2.24c-.156 0-.26.104-.312.26l-.886 5.728c0 .104.053.208.209.208h1.145c.104 0 .209-.052.209-.208l.26-1.614c0-.156.156-.26.312-.26h.73c1.457 0 2.29-.73 2.551-2.136.104-.624 0-1.093-.26-1.457-.365-.313-.938-.521-1.719-.521Zm5.207 4.165c-.105.625-.573 1.042-1.198 1.042-.313 0-.573-.104-.73-.312a.904.904 0 0 1-.155-.73c.104-.624.572-1.04 1.197-1.04.313 0 .573.103.73.312.103.156.208.416.156.729Zm1.457-2.082h-1.04c-.105 0-.157.052-.21.156l-.051.312-.052-.104c-.209-.312-.73-.469-1.25-.469-1.198 0-2.187.886-2.395 2.136-.105.624.052 1.197.416 1.614.313.364.781.52 1.354.52a1.99 1.99 0 0 0 1.458-.624l-.052.312c0 .104.052.208.208.208h.938c.156 0 .26-.104.312-.26l.573-3.645c0-.052-.104-.156-.209-.156Zm1.249-1.927-.937 5.832c0 .104.052.208.208.208h.937c.157 0 .26-.104.313-.26l.885-5.728c0-.104-.052-.208-.208-.208h-1.042c-.052 0-.104.104-.156.156Z"/>
  <path fill="#263577" d="m13.343 28.425.156-1.094h-2.186l1.25-7.967s0-.052.051-.052h3.125c.989 0 1.718.208 2.082.625.157.208.26.417.313.625.052.26.052.52 0 .885v.209l.156.104c.156.052.26.156.365.26.156.156.26.364.26.625.052.26.052.573-.052.937a4.863 4.863 0 0 1-.364 1.042c-.157.26-.365.468-.573.677-.209.156-.521.26-.781.364a5.765 5.765 0 0 1-.99.104h-.26a.84.84 0 0 0-.469.157c-.104.104-.208.26-.26.416v.104l-.313 1.927v.104h-1.51v-.052Z"/>
  <path fill="#2199D6" d="M18.499 21.447c0 .052 0 .104-.052.157-.417 2.082-1.77 2.76-3.541 2.76h-.886c-.208 0-.416.155-.416.364l-.469 2.916-.104.833c0 .156.104.26.208.26h1.614c.209 0 .365-.156.365-.312v-.104l.313-1.875v-.104c.052-.208.208-.312.364-.312h.26c1.563 0 2.76-.625 3.073-2.448.156-.78.052-1.406-.313-1.822a2.887 2.887 0 0 0-.416-.313Z"/>
  <path fill="#252C5E" d="M18.082 21.291c-.052 0-.104-.052-.208-.052-.052 0-.156-.052-.208-.052-.26-.052-.521-.052-.782-.052H14.49c-.052 0-.104 0-.156.052-.104.052-.209.156-.209.26l-.52 3.229v.104c.052-.208.208-.365.416-.365h.886c1.77 0 3.124-.729 3.54-2.76 0-.052 0-.104.053-.156l-.313-.156c-.052-.052-.104-.052-.104-.052Z"/>
  <path fill="#263577" d="M14.124 21.447c0-.104.104-.208.209-.26.052 0 .104-.052.156-.052h2.395c.26 0 .573 0 .781.052.052 0 .157 0 .209.052.052 0 .104.052.208.052.052 0 .052 0 .104.052l.312.157c.105-.782 0-1.302-.416-1.771-.469-.52-1.302-.729-2.343-.729h-3.073c-.208 0-.416.156-.416.364L11 27.384c0 .156.104.312.26.312h1.875l.469-3.02.52-3.229Z"/>
</svg>
