<svg xmlns="http://www.w3.org/2000/svg" width="63" height="48" fill="none" viewBox="0 0 63 48">
  <rect width="63" height="48" fill="#F2F2FA" rx="4"/>
  <path fill="#3362AB" d="M31.093 32.874c2.408-2.219 3.93-5.388 3.93-8.874 0-3.55-1.522-6.719-3.93-8.874-2.155-1.901-4.944-3.105-8.05-3.105C16.388 12.02 11 17.407 11 24c0 6.655 5.388 12.043 12.043 12.043 3.106-.063 5.895-1.268 8.05-3.17Z"/>
  <path fill="#3362AB" d="M31.092 32.874c2.409-2.219 3.93-5.388 3.93-8.874 0-3.55-1.521-6.719-3.93-8.874"/>
  <path stroke="#3362AB" stroke-width=".31" d="M31.092 32.874c2.409-2.219 3.93-5.388 3.93-8.874 0-3.55-1.521-6.719-3.93-8.874"/>
  <path fill="#C9191B" d="M39.143 11.957a11.996 11.996 0 0 0-8.05 3.106c-.444.38-.824.824-1.204 1.268h2.408c.317.38.634.823.888 1.267h-4.247a8.11 8.11 0 0 0-.697 1.268h5.641c.19.444.38.824.507 1.268h-6.655c-.127.443-.254.823-.38 1.267h7.352c.19.824.253 1.648.253 2.535 0 1.332-.19 2.6-.633 3.804H27.67c.127.443.317.887.507 1.267h5.642c-.19.444-.444.888-.698 1.268h-4.246c.253.444.57.887.887 1.268h2.409c-.38.443-.761.887-1.205 1.267 2.155 1.902 4.944 3.106 8.05 3.106 6.655 0 11.98-5.387 11.98-12.043.19-6.528-5.198-11.916-11.853-11.916Z"/>
  <path fill="#fff" d="M21.522 26.916H20l.887-4.69-2.028 4.69h-1.331l-.254-4.627-.887 4.627h-1.331l1.14-6.085h2.346l.127 3.803 1.648-3.803h2.408l-1.204 6.085Zm16.733 0c-.38.126-.76.19-1.077.19-.76 0-1.205-.38-1.205-1.078 0-.127 0-.317.064-.444l.063-.507.064-.38.697-3.803h1.458l-.19 1.141h.76l-.19 1.204h-.76l-.381 2.092v.19c0 .254.19.38.507.38.19 0 .317 0 .38-.063l-.19 1.078Zm4.311-4.881c-.127-.063-.127-.063-.19-.063h-.317c-.508 0-.825.19-1.332.824l.127-.76H39.65l-.887 4.943h1.52c.508-3.042.761-3.55 1.459-3.55h.19l.19.064.444-1.458Zm-10.27 1.521c0 .634.38 1.078 1.141 1.395.634.253.698.316.698.57 0 .317-.254.444-.888.444-.444 0-.887-.064-1.33-.19l-.191 1.14h.063l.254.064c.063 0 .253.063.38.063.38 0 .634.064.824.064 1.585 0 2.345-.507 2.345-1.648 0-.697-.316-1.078-1.077-1.395-.634-.253-.697-.317-.697-.57 0-.254.253-.38.76-.38.317 0 .697 0 1.078.063l.19-1.141a9.453 9.453 0 0 0-1.331-.127c-1.648 0-2.219.76-2.219 1.648Zm-6.971 1.204h-.317c-.824 0-1.267.254-1.267.761 0 .317.19.507.507.507.57-.063 1.014-.57 1.077-1.267Zm1.078 2.155h-1.268l.063-.507c-.38.38-.887.57-1.584.57-.824 0-1.331-.57-1.331-1.33 0-1.204.95-1.902 2.598-1.902.19 0 .38 0 .634.064.064-.19.064-.254.064-.317 0-.317-.254-.444-.951-.444a6.41 6.41 0 0 0-1.204.127l-.19.063-.127.064.19-1.141c.76-.19 1.204-.254 1.775-.254 1.267 0 1.965.507 1.965 1.458 0 .254 0 .444-.127.95l-.317 1.776-.064.316-.063.254v.19l-.063.064Zm4.119-3.042v-.253c0-.38-.254-.634-.697-.634-.507 0-.824.317-.951.887h1.648Zm.76 2.98a6.249 6.249 0 0 1-1.52.19c-1.649 0-2.536-.761-2.536-2.219 0-1.711 1.078-2.979 2.599-2.979 1.204 0 2.028.697 2.028 1.775 0 .38-.063.697-.19 1.204h-2.98v.127c0 .57.445.887 1.332.887.507 0 1.014-.127 1.584-.317l-.317 1.331Zm14.389-2.79c0-.507-.19-1.014-.824-1.014-.76 0-1.204.887-1.204 1.712 0 .697.317 1.14.887 1.14.317 0 1.014-.443 1.141-1.204v-.634Zm1.585.634c-.254 1.648-1.395 2.409-2.916 2.409-1.711 0-2.345-1.015-2.345-2.282 0-1.775 1.14-2.916 2.916-2.916 1.584 0 2.345.951 2.345 2.219.063.253.063.253 0 .57Z"/>
</svg>
