<svg xmlns="http://www.w3.org/2000/svg" width="63" height="48" fill="none" viewBox="0 0 63 48">
  <rect width="63" height="48" fill="#F2F2FA" rx="4"/>
  <path fill="#3362AB" d="M48.31 17.535h-2.515c-.76 0-1.345.234-1.695.994l-4.796 10.936h3.392s.585-1.462.702-1.813h4.152c.117.41.41 1.754.41 1.754H51l-2.69-11.871Zm-3.976 7.66c.292-.701 1.286-3.333 1.286-3.333 0 .059.293-.701.41-1.11l.233 1.052s.644 2.865.76 3.45h-2.69v-.058Zm-4.796.352c0 2.456-2.222 4.093-5.673 4.093-1.462 0-2.865-.292-3.625-.643l.467-2.69.41.175c1.052.468 1.754.644 3.04.644.936 0 1.93-.351 1.93-1.17 0-.526-.409-.877-1.695-1.462-1.228-.585-2.866-1.52-2.866-3.216 0-2.34 2.28-3.918 5.497-3.918 1.228 0 2.28.233 2.924.526l-.468 2.573-.234-.234a6.284 6.284 0 0 0-2.456-.468c-1.228.059-1.813.585-1.813 1.053 0 .526.702.936 1.813 1.462 1.872.877 2.749 1.871 2.749 3.275Z"/>
  <path fill="#F9B50B" d="m11 17.652.059-.234h5.029c.701 0 1.228.234 1.403.994l1.111 5.264c-1.11-2.807-3.684-5.088-7.602-6.024Z"/>
  <path fill="#3362AB" d="M25.679 17.535 20.59 29.406h-3.45l-2.924-9.941c2.105 1.345 3.86 3.45 4.503 4.912l.35 1.228 3.159-8.128h3.45v.058Zm1.344-.058h3.216l-2.046 11.93h-3.217l2.047-11.93Z"/>
</svg>
